# xmcd CD Database Entry
#
# Track frame offsets:
# 150
# 19240
# 38452
# 55113
# 72770
# 87372
# 106452
# 123197
# 141845
# 157147
# 175912
# 192661
# 208418
# 223638
# 243186
# 258032
# 274001
# 288635
# 303822
# 316237
# 329974
# 341746
#
# Disc length: 4736 seconds
#
# Revision: 1
# Processed by: cddbd v1.4PL0 Copyright (c) Steve Scherf et al.
# Submitted via: tcd 2.0b
#
DISCID=51127e16
DTITLE=PaulinaRubio
DYEAR=1900
DGENRE=
TTITLE0=Pista 1
TTITLE1=Pista 2
TTITLE2=Pista 3
TTITLE3=Pista 4
TTITLE4=Pista 5
TTITLE5=Pista 6
TTITLE6=Pista 7
TTITLE7=Pista 8
TTITLE8=Pista 9
TTITLE9=Pista 10
TTITLE10=Pista 11
TTITLE11=Pista 12
TTITLE12=Pista 13
TTITLE13=Pista 14
TTITLE14=Pista 15
TTITLE15=Pista 16
TTITLE16=Pista 17
TTITLE17=Pista 18
TTITLE18=Pista 19
TTITLE19=Pista 20
TTITLE20=Pista 21
TTITLE21=Pista 22
EXTD=
EXTT0=
EXTT1=
EXTT2=
EXTT3=
EXTT4=
EXTT5=
EXTT6=
EXTT7=
EXTT8=
EXTT9=
EXTT10=
EXTT11=
EXTT12=
EXTT13=
EXTT14=
EXTT15=
EXTT16=
EXTT17=
EXTT18=
EXTT19=
EXTT20=
EXTT21=
PLAYORDER=
